<svg width="37" height="32" viewBox="0 0 37 32" fill="none" xmlns="http://www.w3.org/2000/svg">
<g clip-path="url(#clip0_776_1593)">
<path d="M28.1074 15.9986C28.1074 18.959 29.716 21.5412 32.1064 22.9241V23.9965H28.1074V31.9972C32.5269 31.9972 36.1081 28.4159 36.1081 23.9965V8.0007H28.1074V16.0014V15.9986Z" fill="#285850"/>
<path d="M4.10832 8.00072C4.10832 10.9611 5.71692 13.5434 8.10726 14.9262V15.9986H0.109375V23.9993H4.10832C8.52775 23.9993 12.109 20.418 12.109 15.9986V7.99789H4.10832V8.00072Z" fill="#285850"/>
<path d="M36.1081 0H28.1074V3.99894H36.1081V0Z" fill="#285850"/>
<path d="M16.1084 0C16.1084 2.9604 17.717 5.54264 20.1073 6.92548V7.99788H16.1084V23.9965C20.5278 23.9965 24.1091 20.4152 24.1091 15.9958V0H16.1084Z" fill="#285850"/>
</g>
<defs>
<clipPath id="clip0_776_1593">
<rect width="35.9989" height="32" fill="white" transform="translate(0.109375)"/>
</clipPath>
</defs>
</svg>
